<svg xmlns="http://www.w3.org/2000/svg" width="21" height="21" fill="none" style=""><rect id="backgroundrect" width="100%" height="100%" x="0" y="0" fill="none" stroke="none" class="" style=""/>


<defs>
<radialGradient id="paint0_radial" cx="0" cy="0" r="1" gradientUnits="userSpaceOnUse" gradientTransform="translate(10.218 25.7856) rotate(-101.659) scale(34.1076)">
<stop stop-color="#067E12"/>
<stop offset="0.93237" stop-color="#459804" stop-opacity="0.551879"/>
<stop offset="1" stop-color="#0B7E17" stop-opacity="0"/>
</radialGradient>
</defs>
<g class="currentLayer" style=""><title>Layer 1</title><path d="M7.8314065969734195,0.5429923991994858 C7.953996596973419,0.4767103991994862 8.01528659697342,0.4435693991994859 8.073846596973418,0.41376139919948585 C9.585176596973419,-0.35560760080051446 11.373386596973418,-0.35560760080051446 12.88468659697342,0.41376139919948585 C12.943286596973419,0.4435693991994859 13.004586596973418,0.4767103991994862 13.12708659697342,0.5429923991994858 L15.433186596973417,1.7898243991994858 L17.66598659697342,3.163514399199486 C17.78468659697342,3.2365343991994857 17.84408659697342,3.273044399199486 17.89918659697342,3.3088543991994857 C19.32108659697342,4.233024399199487 20.21518659697342,5.781634399199486 20.30458659697342,7.475174399199486 C20.307986596973418,7.540784399199486 20.309986596973417,7.610434399199486 20.31388659697342,7.749744399199486 L20.38708659697342,10.370234399199486 L20.31388659697342,12.990734399199486 C20.309986596973417,13.130134399199486 20.307986596973418,13.199734399199485 20.30458659697342,13.265334399199485 C20.21518659697342,14.958934399199485 19.32108659697342,16.507534399199486 17.89918659697342,17.431634399199485 C17.84408659697342,17.467434399199487 17.78468659697342,17.504034399199487 17.66598659697342,17.577034399199487 L15.433186596973417,18.950734399199487 L13.12708659697342,20.197534399199487 C13.004586596973418,20.263834399199485 12.943286596973419,20.296934399199486 12.88468659697342,20.326734399199484 C11.373386596973418,21.096134399199485 9.585176596973419,21.096134399199485 8.073846596973418,20.326734399199484 C8.01528659697342,20.296934399199486 7.953996596973419,20.263834399199485 7.8314065969734195,20.197534399199487 L5.525346596973419,18.950734399199487 L3.292526596973419,17.577034399199487 C3.1738365969734192,17.504034399199487 3.1144865969734195,17.467434399199487 3.059396596973419,17.431634399199485 C1.637436596973419,16.507534399199486 0.7433465969734192,14.958934399199485 0.6539725969734191,13.265334399199485 C0.6505095969734191,13.199734399199485 0.6485625969734191,13.130134399199486 0.6446695969734192,12.990734399199486 L0.5714285969734191,10.370234399199486 L0.6446695969734192,7.749744399199486 C0.6485625969734191,7.610434399199486 0.6505095969734191,7.540784399199486 0.6539725969734191,7.475164399199485 C0.7433465969734192,5.781634399199486 1.637436596973419,4.233024399199487 3.059396596973419,3.3088543991994857 C3.1144865969734195,3.273054399199486 3.1738365969734192,3.2365343991994857 3.2925365969734193,3.163514399199486 L5.525346596973419,1.7898243991994858 L7.8314065969734195,0.5429923991994858 z" fill="url(#paint0_radial)" id="svg_1" class=""/><path fill-rule="evenodd" clip-rule="evenodd" d="M16.072858,5.594969701976776 C16.727657999999998,6.103539701976776 16.846158,7.046619701976776 16.337557999999998,7.701399701976776 L9.715997999999999,16.226699701976777 L3.950298,12.015999701976776 C3.280758,11.527099701976777 3.134368,10.587899701976776 3.623328,9.918359701976776 C4.112298,9.248809701976777 5.051458,9.102429701976776 5.721008,9.591389701976777 L9.132798000000001,12.082999701976776 L13.966458,5.859709701976776 C14.474958,5.204929701976776 15.418057999999998,5.086399701976776 16.072858,5.594969701976776 z" fill="white" id="svg_2" class=""/></g></svg>