<svg width="137" height="24" viewBox="0 0 137 24" fill="none" xmlns="http://www.w3.org/2000/svg">
<path d="M13.9076 20.505C12.4664 21.9221 10.5449 22.6427 8.64742 22.6427C3.79558 22.6427 1.29761 19.232 1.24957 15.2929C1.22555 11.2577 3.74755 7.79895 8.64742 7.79895C10.5449 7.79895 12.4424 8.4955 13.8836 9.93664L14.7723 9.16804C13.0909 7.48671 10.8572 6.64604 8.64742 6.64604C2.88286 6.64604 -0.0474568 10.8494 0.000581181 15.3409C0.0246002 19.8805 2.97894 23.8436 8.64742 23.8436C10.8572 23.8436 13.0909 23.003 14.7723 21.3217L13.9076 20.505Z" fill="black"/>
<path d="M22.8267 23.8196C26.1653 23.8196 28.8555 21.5138 28.8555 17.7428C28.8555 13.9718 26.1653 11.5699 22.8267 11.5699C19.4881 11.5699 16.7979 13.9718 16.7979 17.7428C16.7979 21.5138 19.4881 23.8196 22.8267 23.8196ZM22.8267 22.6667C20.1366 22.6667 17.9508 20.8173 17.9508 17.7428C17.9508 14.6684 20.1366 12.6748 22.8267 12.6748C25.5168 12.6748 27.7026 14.6684 27.7026 17.7428C27.7026 20.8173 25.5168 22.6667 22.8267 22.6667Z" fill="black"/>
<path d="M35.1732 23.6515H36.4702L41.4422 11.7861H40.1452L35.8217 22.2824L31.4983 11.7861H30.2013L35.1732 23.6515Z" fill="black"/>
<path d="M65.7964 19.0176C64.6915 20.1225 63.0342 20.723 61.569 20.723C57.4137 20.723 55.8045 17.8167 55.7805 15.0305C55.7564 12.2203 57.5098 9.19387 61.569 9.19387C63.0342 9.19387 64.5234 9.69827 65.6282 10.7791L67.7419 8.73751C66.0126 7.03216 63.8508 6.16747 61.569 6.16747C55.4922 6.16747 52.634 10.635 52.658 15.0305C52.682 19.4019 55.3241 23.7013 61.569 23.7013C63.995 23.7013 66.2287 22.9087 67.9581 21.2034L65.7964 19.0176Z" fill="black"/>
<path d="M69.2945 6.52776V23.317H72.2008V6.52776H69.2945Z" fill="black"/>
<path d="M86.5051 18.4412C86.9614 13.5653 84.4875 11.1154 80.5243 11.1154C76.6813 11.1154 74.2314 13.7094 74.2314 17.3123C74.2314 21.1073 76.6573 23.6293 80.7405 23.6293C82.5419 23.6293 84.5836 23.0048 85.8325 21.7078L83.9591 19.8583C83.2865 20.5549 81.8694 20.9632 80.7886 20.9632C78.7229 20.9632 77.4499 19.9063 77.2578 18.4412H86.5051ZM77.3058 16.0153C77.7381 14.478 79.0352 13.7094 80.6204 13.7094C82.3018 13.7094 83.5027 14.478 83.6949 16.0153H77.3058Z" fill="black"/>
<path d="M98.0584 13.109C97.3859 11.932 95.8727 11.1874 94.2874 11.1874C90.8287 11.1634 88.1145 13.3011 88.1145 17.3843C88.1145 21.5396 90.7086 23.7013 94.2154 23.6773C95.5364 23.6533 97.3859 22.9808 98.0584 21.5877L98.2025 23.317H100.965V11.4757H98.1545L98.0584 13.109ZM94.5516 13.8055C99.1633 13.8055 99.1633 20.9872 94.5516 20.9872C92.6061 20.9872 91.0449 19.6421 91.0449 17.3843C91.0449 15.1266 92.6061 13.8055 94.5516 13.8055Z" fill="black"/>
<path d="M103.447 11.4757V23.317H106.377V17.0721C106.377 14.8864 107.794 14.0697 109.331 14.0697C110.292 14.0697 110.844 14.3339 111.445 14.8383L112.766 12.2923C112.117 11.6438 110.94 11.1634 109.716 11.1634C108.515 11.1634 107.29 11.3796 106.377 12.8448L106.161 11.4757H103.447Z" fill="black"/>
<path d="M124.365 0.706258C124.488 0.639976 124.549 0.606835 124.607 0.577027C126.119 -0.192342 127.907 -0.192342 129.418 0.577027C129.477 0.606835 129.538 0.639976 129.661 0.706258L131.967 1.95309L134.2 3.32678C134.318 3.3998 134.378 3.43631 134.433 3.47212C135.855 4.39629 136.749 5.9449 136.838 7.63844C136.842 7.70405 136.844 7.7737 136.847 7.91301L136.921 10.5335L136.847 13.154C136.844 13.2934 136.842 13.363 136.838 13.4286C136.749 15.1222 135.855 16.6708 134.433 17.5949C134.378 17.6307 134.318 17.6673 134.2 17.7403L131.967 19.114L129.661 20.3608C129.538 20.4271 129.477 20.4602 129.418 20.49C127.907 21.2594 126.119 21.2594 124.607 20.49C124.549 20.4602 124.488 20.4271 124.365 20.3608L122.059 19.114L119.826 17.7403C119.707 17.6673 119.648 17.6307 119.593 17.5949C118.171 16.6708 117.277 15.1222 117.188 13.4286C117.184 13.363 117.182 13.2934 117.178 13.154L117.105 10.5335L117.178 7.91301C117.182 7.7737 117.184 7.70405 117.188 7.63843C117.277 5.9449 118.171 4.39629 119.593 3.47212C119.648 3.43632 119.707 3.3998 119.826 3.32678L122.059 1.95309L124.365 0.706258Z" fill="url(#paint0_radial)"/>
<path fill-rule="evenodd" clip-rule="evenodd" d="M133.178 5.59497C133.833 6.10354 133.951 7.04662 133.443 7.7014L126.821 16.2267L121.055 12.016C120.386 11.5271 120.239 10.5879 120.728 9.91836C121.217 9.24881 122.156 9.10243 122.826 9.59139L126.238 12.083L131.071 5.85971C131.58 5.20493 132.523 5.0864 133.178 5.59497Z" fill="white"/>
<path fill-rule="evenodd" clip-rule="evenodd" d="M49 17L44 17L44 16L49 16L49 17Z" fill="black"/>
<defs>
<radialGradient id="paint0_radial" cx="0" cy="0" r="1" gradientUnits="userSpaceOnUse" gradientTransform="translate(127.218 25.7856) rotate(-101.659) scale(34.1076)">
<stop stop-color="#067E12"/>
<stop offset="0.93237" stop-color="#459804" stop-opacity="0.551879"/>
<stop offset="1" stop-color="#0B7E17" stop-opacity="0"/>
</radialGradient>
</defs>
</svg>

