<svg width="129" height="24" viewBox="0 0 129 24" fill="none" xmlns="http://www.w3.org/2000/svg">
<path d="M13.9076 20.505C12.4664 21.9221 10.5449 22.6427 8.64742 22.6427C3.79558 22.6427 1.29761 19.232 1.24957 15.2929C1.22555 11.2577 3.74755 7.79895 8.64742 7.79895C10.5449 7.79895 12.4424 8.4955 13.8836 9.93664L14.7723 9.16804C13.0909 7.48671 10.8572 6.64604 8.64742 6.64604C2.88286 6.64604 -0.0474568 10.8494 0.000581181 15.3409C0.0246002 19.8805 2.97894 23.8436 8.64742 23.8436C10.8572 23.8436 13.0909 23.003 14.7723 21.3217L13.9076 20.505Z" fill="black"/>
<path d="M22.8267 23.8196C26.1653 23.8196 28.8555 21.5138 28.8555 17.7428C28.8555 13.9718 26.1653 11.5699 22.8267 11.5699C19.4881 11.5699 16.7979 13.9718 16.7979 17.7428C16.7979 21.5138 19.4881 23.8196 22.8267 23.8196ZM22.8267 22.6667C20.1366 22.6667 17.9508 20.8173 17.9508 17.7428C17.9508 14.6684 20.1366 12.6748 22.8267 12.6748C25.5168 12.6748 27.7026 14.6684 27.7026 17.7428C27.7026 20.8173 25.5168 22.6667 22.8267 22.6667Z" fill="black"/>
<path d="M35.1732 23.6515H36.4702L41.4422 11.7861H40.1452L35.8217 22.2824L31.4983 11.7861H30.2013L35.1732 23.6515Z" fill="black"/>
<path d="M57.7964 19.0176C56.6915 20.1225 55.0342 20.723 53.569 20.723C49.4137 20.723 47.8045 17.8167 47.7805 15.0305C47.7564 12.2203 49.5098 9.19387 53.569 9.19387C55.0342 9.19387 56.5234 9.69827 57.6282 10.7791L59.7419 8.73751C58.0126 7.03216 55.8508 6.16747 53.569 6.16747C47.4922 6.16747 44.634 10.635 44.658 15.0305C44.682 19.4019 47.3241 23.7013 53.569 23.7013C55.995 23.7013 58.2287 22.9087 59.9581 21.2034L57.7964 19.0176Z" fill="black"/>
<path d="M61.2945 6.52776V23.317H64.2008V6.52776H61.2945Z" fill="black"/>
<path d="M78.5051 18.4412C78.9614 13.5653 76.4875 11.1154 72.5243 11.1154C68.6813 11.1154 66.2314 13.7094 66.2314 17.3123C66.2314 21.1073 68.6573 23.6293 72.7405 23.6293C74.5419 23.6293 76.5836 23.0048 77.8325 21.7078L75.9591 19.8583C75.2865 20.5549 73.8694 20.9632 72.7886 20.9632C70.7229 20.9632 69.4499 19.9063 69.2578 18.4412H78.5051ZM69.3058 16.0153C69.7381 14.478 71.0352 13.7094 72.6204 13.7094C74.3018 13.7094 75.5027 14.478 75.6949 16.0153H69.3058Z" fill="black"/>
<path d="M90.0584 13.109C89.3859 11.932 87.8727 11.1874 86.2874 11.1874C82.8287 11.1634 80.1145 13.3011 80.1145 17.3843C80.1145 21.5396 82.7086 23.7013 86.2154 23.6773C87.5364 23.6533 89.3859 22.9808 90.0584 21.5877L90.2025 23.317H92.9647V11.4757H90.1545L90.0584 13.109ZM86.5516 13.8055C91.1633 13.8055 91.1633 20.9872 86.5516 20.9872C84.6061 20.9872 83.0449 19.6421 83.0449 17.3843C83.0449 15.1266 84.6061 13.8055 86.5516 13.8055Z" fill="black"/>
<path d="M95.4465 11.4757V23.317H98.3769V17.0721C98.3769 14.8864 99.794 14.0697 101.331 14.0697C102.292 14.0697 102.844 14.3339 103.445 14.8383L104.766 12.2923C104.117 11.6438 102.94 11.1634 101.716 11.1634C100.515 11.1634 99.2896 11.3796 98.3769 12.8448L98.1607 11.4757H95.4465Z" fill="black"/>
<path d="M116.365 0.706258C116.488 0.639976 116.549 0.606835 116.607 0.577027C118.119 -0.192342 119.907 -0.192342 121.418 0.577027C121.477 0.606835 121.538 0.639976 121.661 0.706258L123.967 1.95309L126.2 3.32678C126.318 3.3998 126.378 3.43631 126.433 3.47212C127.855 4.39629 128.749 5.9449 128.838 7.63844C128.842 7.70405 128.844 7.7737 128.847 7.91301L128.921 10.5335L128.847 13.154C128.844 13.2934 128.842 13.363 128.838 13.4286C128.749 15.1222 127.855 16.6708 126.433 17.5949C126.378 17.6307 126.318 17.6673 126.2 17.7403L123.967 19.114L121.661 20.3608C121.538 20.4271 121.477 20.4602 121.418 20.49C119.907 21.2594 118.119 21.2594 116.607 20.49C116.549 20.4602 116.488 20.4271 116.365 20.3608L114.059 19.114L111.826 17.7403C111.707 17.6673 111.648 17.6307 111.593 17.5949C110.171 16.6708 109.277 15.1222 109.188 13.4286C109.184 13.363 109.182 13.2934 109.178 13.154L109.105 10.5335L109.178 7.91301C109.182 7.7737 109.184 7.70405 109.188 7.63843C109.277 5.9449 110.171 4.39629 111.593 3.47212C111.648 3.43631 111.707 3.3998 111.826 3.32678L114.059 1.95309L116.365 0.706258Z" fill="url(#paint0_radial)"/>
<path fill-rule="evenodd" clip-rule="evenodd" d="M125.178 5.59497C125.833 6.10354 125.951 7.04662 125.443 7.7014L118.821 16.2267L113.055 12.016C112.386 11.5271 112.239 10.5879 112.728 9.91836C113.217 9.24881 114.156 9.10243 114.826 9.59139L118.238 12.083L123.071 5.85971C123.58 5.20493 124.523 5.0864 125.178 5.59497Z" fill="white"/>
<defs>
<radialGradient id="paint0_radial" cx="0" cy="0" r="1" gradientUnits="userSpaceOnUse" gradientTransform="translate(119.218 25.7856) rotate(-101.659) scale(34.1076)">
<stop stop-color="#067E12"/>
<stop offset="0.93237" stop-color="#459804" stop-opacity="0.551879"/>
<stop offset="1" stop-color="#0B7E17" stop-opacity="0"/>
</radialGradient>
</defs>
</svg>
